<?xml version="1.0" encoding="UTF-8" standalone="no"?>
<!DOCTYPE svg PUBLIC "-//W3C//DTD SVG 1.1//EN"
 "http://www.w3.org/Graphics/SVG/1.1/DTD/svg11.dtd">
<!-- Generated by graphviz version 2.43.0 (0)
 -->
<!-- Title: ThreesumTransfer Pages: 1 -->
<svg width="1864pt" height="593pt"
 viewBox="0.00 0.00 1864.00 592.53" xmlns="http://www.w3.org/2000/svg" xmlns:xlink="http://www.w3.org/1999/xlink">
<g id="graph0" class="graph" transform="scale(1 1) rotate(0) translate(4 588.53)">
<title>ThreesumTransfer</title>
<polygon fill="white" stroke="transparent" points="-4,4 -4,-588.53 1860,-588.53 1860,4 -4,4"/>
<text text-anchor="middle" x="928" y="-569.33" font-family="Helvetica,sans-Serif" font-size="14.00">3SUM breakthrough vs index calculus: where the transfer breaks &#160;| &#160;green = intact; red = broken link; yellow = conditional</text>
<g id="clust1" class="cluster">
<title>cluster_claim</title>
<path fill="#fef9c3" stroke="black" d="M20,-364.42C20,-364.42 700,-364.42 700,-364.42 706,-364.42 712,-370.42 712,-376.42 712,-376.42 712,-541.53 712,-541.53 712,-547.53 706,-553.53 700,-553.53 700,-553.53 20,-553.53 20,-553.53 14,-553.53 8,-547.53 8,-541.53 8,-541.53 8,-376.42 8,-376.42 8,-370.42 14,-364.42 20,-364.42"/>
<text text-anchor="middle" x="360" y="-538.33" font-family="Helvetica,sans-Serif" font-size="14.00">Claim (arXiv 2610.06783, Oct 5 2026, unreviewed preprint)</text>
</g>
<g id="clust2" class="cluster">
<title>cluster_gaps</title>
<path fill="#fef2f2" stroke="black" d="M732,-225.23C732,-225.23 1396,-225.23 1396,-225.23 1402,-225.23 1408,-231.23 1408,-237.23 1408,-237.23 1408,-440.53 1408,-440.53 1408,-446.53 1402,-452.53 1396,-452.53 1396,-452.53 732,-452.53 732,-452.53 726,-452.53 720,-446.53 720,-440.53 720,-440.53 720,-237.23 720,-237.23 720,-231.23 726,-225.23 732,-225.23"/>
<text text-anchor="middle" x="1064" y="-437.33" font-family="Helvetica,sans-Serif" font-size="14.00">Transfer gaps (each link independently blocks)</text>
</g>
<g id="clust3" class="cluster">
<title>cluster_ic</title>
<path fill="#f0fdf4" stroke="black" d="M1428,-8C1428,-8 1836,-8 1836,-8 1842,-8 1848,-14 1848,-20 1848,-20 1848,-309.82 1848,-309.82 1848,-315.82 1842,-321.82 1836,-321.82 1836,-321.82 1428,-321.82 1428,-321.82 1422,-321.82 1416,-315.82 1416,-309.82 1416,-309.82 1416,-20 1416,-20 1416,-14 1422,-8 1428,-8"/>
<text text-anchor="middle" x="1632" y="-306.62" font-family="Helvetica,sans-Serif" font-size="14.00">IC decomposition as built (this tree)</text>
</g>
<g id="clust4" class="cluster">
<title>cluster_floors</title>
<path fill="#eff6ff" stroke="black" d="M1453,-364.42C1453,-364.42 1811,-364.42 1811,-364.42 1817,-364.42 1823,-370.42 1823,-376.42 1823,-376.42 1823,-541.53 1823,-541.53 1823,-547.53 1817,-553.53 1811,-553.53 1811,-553.53 1453,-553.53 1453,-553.53 1447,-553.53 1441,-547.53 1441,-541.53 1441,-541.53 1441,-376.42 1441,-376.42 1441,-370.42 1447,-364.42 1453,-364.42"/>
<text text-anchor="middle" x="1632" y="-538.33" font-family="Helvetica,sans-Serif" font-size="14.00">Floors (independent of the 3SUM hypothesis)</text>
</g>
<!-- CLAIM -->
<g id="node1" class="node">
<title>CLAIM</title>
<polygon fill="#fde68a" stroke="black" stroke-width="2" points="345,-522.53 291,-522.53 291,-486.53 345,-486.53 345,-522.53"/>
<text text-anchor="middle" x="318" y="-501.43" font-family="Helvetica,sans-Serif" font-size="12.00">CLAIM</text>
</g>
<!-- C_3SUM -->
<g id="node2" class="node">
<title>C_3SUM</title>
<polygon fill="white" stroke="black" points="180,-421.53 16,-421.53 16,-385.53 180,-385.53 180,-421.53"/>
<text text-anchor="middle" x="98" y="-406.73" font-family="Helvetica,sans-Serif" font-size="11.00">3SUM on n integers</text>
<text text-anchor="middle" x="98" y="-394.73" font-family="Helvetica,sans-Serif" font-size="11.00">O(n^1.9992) deterministic</text>
</g>
<!-- CLAIM&#45;&gt;C_3SUM -->
<g id="edge1" class="edge">
<title>CLAIM&#45;&gt;C_3SUM</title>
<path fill="none" stroke="black" d="M290.93,-493.52C265,-483.72 224.92,-468.06 191,-452.53 173.6,-444.57 154.77,-435.03 138.64,-426.57"/>
<polygon fill="black" stroke="black" points="139.96,-423.31 129.48,-421.73 136.69,-429.5 139.96,-423.31"/>
</g>
<!-- C_APSP -->
<g id="node3" class="node">
<title>C_APSP</title>
<polygon fill="white" stroke="black" points="290,-421.53 202,-421.53 202,-385.53 290,-385.53 290,-421.53"/>
<text text-anchor="middle" x="246" y="-406.73" font-family="Helvetica,sans-Serif" font-size="11.00">integer APSP</text>
<text text-anchor="middle" x="246" y="-394.73" font-family="Helvetica,sans-Serif" font-size="11.00">O(n^2.9995)</text>
</g>
<!-- CLAIM&#45;&gt;C_APSP -->
<g id="edge2" class="edge">
<title>CLAIM&#45;&gt;C_APSP</title>
<path fill="none" stroke="black" d="M305.46,-486.29C294.1,-470.67 277.23,-447.47 264.35,-429.77"/>
<polygon fill="black" stroke="black" points="267.11,-427.61 258.4,-421.58 261.45,-431.73 267.11,-427.61"/>
</g>
<!-- C_TECH -->
<g id="node4" class="node">
<title>C_TECH</title>
<polygon fill="white" stroke="black" points="467.5,-425.53 312.5,-425.53 312.5,-381.53 467.5,-381.53 467.5,-425.53"/>
<text text-anchor="middle" x="390" y="-412.73" font-family="Helvetica,sans-Serif" font-size="11.00">via thin matrix products</text>
<text text-anchor="middle" x="390" y="-400.73" font-family="Helvetica,sans-Serif" font-size="11.00">(Schonhage/Coppersmith</text>
<text text-anchor="middle" x="390" y="-388.73" font-family="Helvetica,sans-Serif" font-size="11.00">machinery)</text>
</g>
<!-- CLAIM&#45;&gt;C_TECH -->
<g id="edge3" class="edge">
<title>CLAIM&#45;&gt;C_TECH</title>
<path fill="none" stroke="black" d="M330.54,-486.29C340.97,-471.95 356.05,-451.21 368.42,-434.21"/>
<polygon fill="black" stroke="black" points="371.55,-435.86 374.6,-425.71 365.89,-431.74 371.55,-435.86"/>
</g>
<!-- C_LEAN -->
<g id="node5" class="node">
<title>C_LEAN</title>
<ellipse fill="#fef9c3" stroke="black" cx="597" cy="-403.53" rx="107.46" ry="31.23"/>
<text text-anchor="middle" x="597" y="-412.73" font-family="Helvetica,sans-Serif" font-size="11.00">Lean 4 certificate</text>
<text text-anchor="middle" x="597" y="-400.73" font-family="Helvetica,sans-Serif" font-size="11.00">reported by aggregators</text>
<text text-anchor="middle" x="597" y="-388.73" font-family="Helvetica,sans-Serif" font-size="11.00">(unverified here)</text>
</g>
<!-- CLAIM&#45;&gt;C_LEAN -->
<g id="edge4" class="edge">
<title>CLAIM&#45;&gt;C_LEAN</title>
<path fill="none" stroke="black" stroke-dasharray="5,2" d="M345.28,-495.61C377.48,-486.1 432.53,-469.31 479,-452.53 495.17,-446.69 512.4,-439.97 528.56,-433.45"/>
<polygon fill="black" stroke="black" points="529.99,-436.65 537.93,-429.64 527.35,-430.16 529.99,-436.65"/>
</g>
<!-- G_MODEL -->
<g id="node7" class="node">
<title>G_MODEL</title>
<ellipse fill="#fecaca" stroke="black" cx="1037" cy="-272.82" rx="101.23" ry="39.7"/>
<text text-anchor="middle" x="1037" y="-288.02" font-family="Helvetica,sans-Serif" font-size="11.00">GAP 1 model (broken):</text>
<text text-anchor="middle" x="1037" y="-276.02" font-family="Helvetica,sans-Serif" font-size="11.00">ordered integers +</text>
<text text-anchor="middle" x="1037" y="-264.02" font-family="Helvetica,sans-Serif" font-size="11.00">comparisons vs curve</text>
<text text-anchor="middle" x="1037" y="-252.02" font-family="Helvetica,sans-Serif" font-size="11.00">groups + hash lookups</text>
</g>
<!-- C_3SUM&#45;&gt;G_MODEL -->
<g id="edge16" class="edge">
<title>C_3SUM&#45;&gt;G_MODEL</title>
<path fill="none" stroke="black" stroke-width="2" d="M191,-364.42C231.45,-354.92 522.52,-339.82 564,-337.42 597.36,-335.49 651.93,-335.56 709.91,-335.01"/>
<polygon fill="black" stroke="black" stroke-width="2" points="710.04,-338.5 720,-334.9 709.97,-331.5 710.04,-338.5"/>
<text text-anchor="middle" x="595" y="-340.22" font-family="Helvetica,sans-Serif" font-size="9.00">needs groups</text>
</g>
<!-- G_TASK -->
<g id="node8" class="node">
<title>G_TASK</title>
<ellipse fill="#fecaca" stroke="black" cx="821" cy="-272.82" rx="92.76" ry="39.7"/>
<text text-anchor="middle" x="821" y="-288.02" font-family="Helvetica,sans-Serif" font-size="11.00">GAP 2 task (broken):</text>
<text text-anchor="middle" x="821" y="-276.02" font-family="Helvetica,sans-Serif" font-size="11.00">one&#45;shot decision vs</text>
<text text-anchor="middle" x="821" y="-264.02" font-family="Helvetica,sans-Serif" font-size="11.00">repeated witness</text>
<text text-anchor="middle" x="821" y="-252.02" font-family="Helvetica,sans-Serif" font-size="11.00">enumeration</text>
</g>
<!-- C_3SUM&#45;&gt;G_TASK -->
<g id="edge17" class="edge">
<title>C_3SUM&#45;&gt;G_TASK</title>
<path fill="none" stroke="black" stroke-width="2" d="M191,-364.42C373.57,-314.7 593.77,-290.96 719.58,-280.69"/>
<polygon fill="black" stroke="black" stroke-width="2" points="718.49,-290.37 720,-279.89 712.28,-287.15 718.49,-290.37"/>
<text text-anchor="middle" x="329" y="-340.22" font-family="Helvetica,sans-Serif" font-size="9.00">needs witnesses</text>
</g>
<!-- G_PRAC -->
<g id="node9" class="node">
<title>G_PRAC</title>
<ellipse fill="#fecaca" stroke="black" cx="1280" cy="-272.82" rx="119.5" ry="39.7"/>
<text text-anchor="middle" x="1280" y="-288.02" font-family="Helvetica,sans-Serif" font-size="11.00">GAP 3 practicality (broken):</text>
<text text-anchor="middle" x="1280" y="-276.02" font-family="Helvetica,sans-Serif" font-size="11.00">0.0008 exponent gain,</text>
<text text-anchor="middle" x="1280" y="-264.02" font-family="Helvetica,sans-Serif" font-size="11.00">galactic constants,</text>
<text text-anchor="middle" x="1280" y="-252.02" font-family="Helvetica,sans-Serif" font-size="11.00">no implementation</text>
</g>
<!-- C_TECH&#45;&gt;G_PRAC -->
<g id="edge18" class="edge">
<title>C_TECH&#45;&gt;G_PRAC</title>
<path fill="none" stroke="black" stroke-width="2" d="M479,-364.42C532.19,-351.74 616.78,-346.76 709.8,-344.02"/>
<polygon fill="black" stroke="black" stroke-width="2" points="710.11,-347.52 720,-343.73 709.91,-340.52 710.11,-347.52"/>
<text text-anchor="middle" x="1007" y="-340.22" font-family="Helvetica,sans-Serif" font-size="9.00">needs code</text>
</g>
<!-- GAPS -->
<g id="node6" class="node">
<title>GAPS</title>
<polygon fill="#fecaca" stroke="black" stroke-width="2" points="1064,-421.53 1010,-421.53 1010,-385.53 1064,-385.53 1064,-421.53"/>
<text text-anchor="middle" x="1037" y="-400.43" font-family="Helvetica,sans-Serif" font-size="12.00">GAPS</text>
</g>
<!-- GAPS&#45;&gt;G_MODEL -->
<g id="edge5" class="edge">
<title>GAPS&#45;&gt;G_MODEL</title>
<path fill="none" stroke="black" d="M1037,-385.44C1037,-369.5 1037,-344.94 1037,-322.92"/>
<polygon fill="black" stroke="black" points="1040.5,-322.68 1037,-312.68 1033.5,-322.69 1040.5,-322.68"/>
</g>
<!-- GAPS&#45;&gt;G_TASK -->
<g id="edge6" class="edge">
<title>GAPS&#45;&gt;G_TASK</title>
<path fill="none" stroke="black" d="M1009.64,-386.23C977.95,-367.35 924.75,-335.64 882.9,-310.71"/>
<polygon fill="black" stroke="black" points="884.54,-307.61 874.16,-305.5 880.96,-313.62 884.54,-307.61"/>
</g>
<!-- GAPS&#45;&gt;G_PRAC -->
<g id="edge7" class="edge">
<title>GAPS&#45;&gt;G_PRAC</title>
<path fill="none" stroke="black" d="M1064.4,-388.02C1099.22,-369.58 1160.61,-337.06 1209,-311.43"/>
<polygon fill="black" stroke="black" points="1210.68,-314.5 1217.88,-306.73 1207.4,-308.32 1210.68,-314.5"/>
</g>
<!-- I_PAIR -->
<g id="node11" class="node">
<title>I_PAIR</title>
<polygon fill="white" stroke="black" points="1525.5,-173.23 1424.5,-173.23 1424.5,-129.23 1525.5,-129.23 1525.5,-173.23"/>
<text text-anchor="middle" x="1475" y="-160.43" font-family="Helvetica,sans-Serif" font-size="11.00">pair&#45;table MITM</text>
<text text-anchor="middle" x="1475" y="-148.43" font-family="Helvetica,sans-Serif" font-size="11.00">O(F^2) build +</text>
<text text-anchor="middle" x="1475" y="-136.43" font-family="Helvetica,sans-Serif" font-size="11.00">O(1) lookups</text>
</g>
<!-- G_MODEL&#45;&gt;I_PAIR -->
<g id="edge19" class="edge">
<title>G_MODEL&#45;&gt;I_PAIR</title>
<path fill="none" stroke="black" stroke-width="2" stroke-dasharray="5,2" d="M1149,-225.23C1239.65,-196.46 1347.92,-174.59 1414.05,-162.59"/>
<polygon fill="black" stroke="black" stroke-width="2" points="1408.21,-168.93 1416,-161.75 1405.43,-162.5 1408.21,-168.93"/>
<text text-anchor="middle" x="1255" y="-201.03" font-family="Helvetica,sans-Serif" font-size="9.00">blocked</text>
</g>
<!-- G_TASK&#45;&gt;I_PAIR -->
<g id="edge20" class="edge">
<title>G_TASK&#45;&gt;I_PAIR</title>
<path fill="none" stroke="black" stroke-width="2" stroke-dasharray="5,2" d="M925,-225.23C1098.12,-176.08 1311.5,-159.79 1414.16,-154.57"/>
<polygon fill="black" stroke="black" stroke-width="2" points="1407.27,-160.07 1416,-154.07 1405.43,-153.31 1407.27,-160.07"/>
<text text-anchor="middle" x="1046" y="-201.03" font-family="Helvetica,sans-Serif" font-size="9.00">blocked</text>
</g>
<!-- I_ALG -->
<g id="node12" class="node">
<title>I_ALG</title>
<polygon fill="white" stroke="black" points="1676,-169.23 1548,-169.23 1548,-133.23 1676,-133.23 1676,-169.23"/>
<text text-anchor="middle" x="1612" y="-154.43" font-family="Helvetica,sans-Serif" font-size="11.00">Groebner / SAT</text>
<text text-anchor="middle" x="1612" y="-142.43" font-family="Helvetica,sans-Serif" font-size="11.00">oracles + lift checks</text>
</g>
<!-- G_PRAC&#45;&gt;I_ALG -->
<g id="edge21" class="edge">
<title>G_PRAC&#45;&gt;I_ALG</title>
<path fill="none" stroke="black" stroke-width="2" stroke-dasharray="5,2" d="M1408,-226.32C1410,-225.45 1412,-224.58 1414,-223.7"/>
<polygon fill="black" stroke="black" stroke-width="2" points="1408.24,-230.04 1416,-222.83 1405.44,-223.62 1408.24,-230.04"/>
<text text-anchor="middle" x="1493" y="-201.03" font-family="Helvetica,sans-Serif" font-size="9.00">blocked</text>
</g>
<!-- IC -->
<g id="node10" class="node">
<title>IC</title>
<polygon fill="#bbf7d0" stroke="black" stroke-width="2" points="1656,-290.82 1568,-290.82 1568,-254.82 1656,-254.82 1656,-290.82"/>
<text text-anchor="middle" x="1612" y="-269.72" font-family="Helvetica,sans-Serif" font-size="12.00">IC ORACLES</text>
</g>
<!-- IC&#45;&gt;I_PAIR -->
<g id="edge8" class="edge">
<title>IC&#45;&gt;I_PAIR</title>
<path fill="none" stroke="black" d="M1592.37,-254.69C1570.11,-235.25 1533.48,-203.28 1507.06,-180.21"/>
<polygon fill="black" stroke="black" points="1509.05,-177.3 1499.21,-173.36 1504.44,-182.57 1509.05,-177.3"/>
</g>
<!-- IC&#45;&gt;I_ALG -->
<g id="edge9" class="edge">
<title>IC&#45;&gt;I_ALG</title>
<path fill="none" stroke="black" d="M1612,-254.69C1612,-235.06 1612,-202.64 1612,-179.52"/>
<polygon fill="black" stroke="black" points="1615.5,-179.33 1612,-169.33 1608.5,-179.33 1615.5,-179.33"/>
</g>
<!-- I_LEDGER -->
<g id="node13" class="node">
<title>I_LEDGER</title>
<polygon fill="white" stroke="black" points="1839.5,-169.23 1698.5,-169.23 1698.5,-133.23 1839.5,-133.23 1839.5,-169.23"/>
<text text-anchor="middle" x="1769" y="-154.43" font-family="Helvetica,sans-Serif" font-size="11.00">measured S&#45;ledgers</text>
<text text-anchor="middle" x="1769" y="-142.43" font-family="Helvetica,sans-Serif" font-size="11.00">+ paired rho baselines</text>
</g>
<!-- IC&#45;&gt;I_LEDGER -->
<g id="edge10" class="edge">
<title>IC&#45;&gt;I_LEDGER</title>
<path fill="none" stroke="black" d="M1634.49,-254.69C1661.78,-233.91 1707.89,-198.78 1738.39,-175.55"/>
<polygon fill="black" stroke="black" points="1740.71,-178.17 1746.55,-169.33 1736.47,-172.6 1740.71,-178.17"/>
</g>
<!-- M_NONE -->
<g id="node14" class="node">
<title>M_NONE</title>
<ellipse fill="#bbf7d0" stroke="black" cx="1612" cy="-47.11" rx="107.46" ry="31.23"/>
<text text-anchor="middle" x="1612" y="-56.31" font-family="Helvetica,sans-Serif" font-size="11.00">no IC row moves:</text>
<text text-anchor="middle" x="1612" y="-44.31" font-family="Helvetica,sans-Serif" font-size="11.00">no oracle invokes 3SUM;</text>
<text text-anchor="middle" x="1612" y="-32.31" font-family="Helvetica,sans-Serif" font-size="11.00">no measurement rerun</text>
</g>
<!-- I_PAIR&#45;&gt;M_NONE -->
<g id="edge11" class="edge">
<title>I_PAIR&#45;&gt;M_NONE</title>
<path fill="none" stroke="black" d="M1503.39,-129.07C1521.45,-115.61 1545.25,-97.87 1565.97,-82.42"/>
<polygon fill="black" stroke="black" points="1568.11,-85.19 1574.03,-76.41 1563.92,-79.58 1568.11,-85.19"/>
</g>
<!-- I_ALG&#45;&gt;M_NONE -->
<g id="edge12" class="edge">
<title>I_ALG&#45;&gt;M_NONE</title>
<path fill="none" stroke="black" stroke-dasharray="5,2" d="M1612,-132.9C1612,-120.79 1612,-104.09 1612,-88.72"/>
<polygon fill="black" stroke="black" points="1615.5,-88.35 1612,-78.35 1608.5,-88.35 1615.5,-88.35"/>
</g>
<!-- I_LEDGER&#45;&gt;M_NONE -->
<g id="edge13" class="edge">
<title>I_LEDGER&#45;&gt;M_NONE</title>
<path fill="none" stroke="black" stroke-dasharray="5,2" d="M1742.72,-133.13C1721.06,-119.05 1689.69,-98.64 1663.11,-81.35"/>
<polygon fill="black" stroke="black" points="1664.96,-78.38 1654.67,-75.86 1661.14,-84.25 1664.96,-78.38"/>
</g>
<!-- FLOORS -->
<g id="node15" class="node">
<title>FLOORS</title>
<polygon fill="#dbeafe" stroke="black" stroke-width="2" points="1673.5,-522.53 1608.5,-522.53 1608.5,-486.53 1673.5,-486.53 1673.5,-522.53"/>
<text text-anchor="middle" x="1641" y="-501.43" font-family="Helvetica,sans-Serif" font-size="12.00">FLOORS</text>
</g>
<!-- F_GENERIC -->
<g id="node16" class="node">
<title>F_GENERIC</title>
<ellipse fill="#bbf7d0" stroke="black" cx="1544" cy="-403.53" rx="94.51" ry="31.23"/>
<text text-anchor="middle" x="1544" y="-412.73" font-family="Helvetica,sans-Serif" font-size="11.00">generic&#45;group</text>
<text text-anchor="middle" x="1544" y="-400.73" font-family="Helvetica,sans-Serif" font-size="11.00">Omega(sqrt(r/|Aut|))</text>
<text text-anchor="middle" x="1544" y="-388.73" font-family="Helvetica,sans-Serif" font-size="11.00">unconditional in GGM</text>
</g>
<!-- FLOORS&#45;&gt;F_GENERIC -->
<g id="edge14" class="edge">
<title>FLOORS&#45;&gt;F_GENERIC</title>
<path fill="none" stroke="black" d="M1624.1,-486.29C1611.88,-473.82 1594.92,-456.5 1579.75,-441.02"/>
<polygon fill="black" stroke="black" points="1581.97,-438.29 1572.47,-433.59 1576.97,-443.19 1581.97,-438.29"/>
</g>
<!-- F_COUNT -->
<g id="node17" class="node">
<title>F_COUNT</title>
<ellipse fill="#bbf7d0" stroke="black" cx="1738" cy="-403.53" rx="77.15" ry="31.23"/>
<text text-anchor="middle" x="1738" y="-412.73" font-family="Helvetica,sans-Serif" font-size="11.00">counting ceilings</text>
<text text-anchor="middle" x="1738" y="-400.73" font-family="Helvetica,sans-Serif" font-size="11.00">C(F+m&#45;1,m)/#E</text>
<text text-anchor="middle" x="1738" y="-388.73" font-family="Helvetica,sans-Serif" font-size="11.00">combinatorial</text>
</g>
<!-- FLOORS&#45;&gt;F_COUNT -->
<g id="edge15" class="edge">
<title>FLOORS&#45;&gt;F_COUNT</title>
<path fill="none" stroke="black" d="M1657.9,-486.29C1670.3,-473.63 1687.6,-455.97 1702.95,-440.31"/>
<polygon fill="black" stroke="black" points="1705.79,-442.4 1710.29,-432.81 1700.79,-437.51 1705.79,-442.4"/>
</g>
</g>
</svg>
